Coordinates
version=1
nRows=10
nColumns=22
inDegrees=yes

Units are S.I. units (second, meters, Newtons, ...)
If the header above contains a line with 'inDegrees', this indicates whether rotational values are in degrees (yes) or radians (no).

endheader
time	pelvis_tilt	pelvis_list	pelvis_rotation	pelvis_tx	pelvis_ty	pelvis_tz	hip_flexion_r	hip_adduction_r	hip_rotation_r	knee_angle_r	ankle_angle_r	subtalar_angle_r	hip_flexion_l	hip_adduction_l	hip_rotation_l	knee_angle_l	ankle_angle_l	subtalar_angle_l	lumbar_extension	lumbar_bending	lumbar_rotation
      3.41000000	      1.56866854	      8.80339831	    -69.71667036	      0.38187025	      0.91136531	     -0.30560256	      7.58772219	      2.65477209	     37.08772594	     -2.28473874	     -4.28655172	      5.46538855	     33.80184268	    -23.93753938	     18.41737854	    -56.38221278	     16.45057727	     23.21025584	     -6.06973228	      2.31082740	     -9.57885160
      3.42000000	      2.05779601	      9.21230759	    -72.74602243	      0.38070810	      0.91141189	     -0.30433791	      7.81032441	      2.94805962	     35.04181318	     -2.62723690	     -4.43617929	      4.74659013	     33.74980174	    -24.20925677	     17.74352958	    -57.48970340	     16.53217330	     21.86275850	     -5.80776035	      1.63183357	     -8.52002529
      3.43000000	      2.59986456	      9.67010155	    -75.88040220	      0.37927366	      0.91119795	     -0.30330426	      8.16377859	      3.30965302	     32.62697091	     -3.10650986	     -4.48106918	      3.96452115	     33.61599918	    -24.46984713	     16.87847450	    -58.53498891	     16.65126455	     20.32296399	     -5.45080618	      0.89490945	     -7.32740580
      3.44000000	      3.15202722	     10.07478292	    -79.08336315	      0.37762988	      0.91082519	     -0.30253464	      8.54837320	      3.78612497	     29.84686257	     -3.68642719	     -4.43380145	      3.06974027	     33.34874744	    -24.75275365	     15.92378445	    -59.51404038	     16.77928948	     18.51665055	     -5.10359259	      0.19268029	     -6.01314529
      3.45000000	      3.75778774	     10.50658301	    -82.37781860	      0.37578439	      0.91018135	     -0.30206836	      9.03008228	      4.28218620	     26.84515454	     -4.31562374	     -4.29808687	      2.15557196	     32.99394004	    -24.99144866	     14.85812698	    -60.39924413	     16.94007263	     16.66543725	     -4.67834780	     -0.54350910	     -4.58367848
      3.46000000	      4.44040243	     10.96466824	    -85.76813485	      0.37377041	      0.90926092	     -0.30193787	      9.61067570	      4.75908745	     23.72190840	     -4.97143399	     -4.07696588	      1.28231765	     32.55211184	    -25.14940414	     13.70244460	    -61.17236099	     17.11511867	     14.92924366	     -4.16977377	     -1.32603520	     -3.04940556
      3.47000000	      5.07241440	     11.32200105	    -89.18458688	      0.37166477	      0.90817619	     -0.30211173	     10.13594366	      5.33261808	     20.49107171	     -5.59429697	     -3.80048096	      0.33578350	     31.98572322	    -25.32811647	     12.59562163	    -61.86053264	     17.32384838	     13.11167111	     -3.71524810	     -1.98771912	     -1.43167133
      3.48000000	      5.76639701	     11.67413864	    -92.67255391	      0.36948075	      0.90684260	     -0.30264067	     10.71386256	      5.86709383	     17.32064758	     -6.20068187	     -3.45780211	     -0.53023207	     31.33668996	    -25.40200714	     11.46861442	    -62.42846051	     17.54458141	     11.58201994	     -3.21137530	     -2.66460225	      0.25956876
      3.49000000	      6.46423725	     11.97931032	    -96.20756384	      0.36723948	      0.90529751	     -0.30351297	     11.29131669	      6.41502383	     14.29860771	     -6.77788050	     -3.06659349	     -1.33648743	     30.60642017	    -25.41864792	     10.37464548	    -62.89134328	     17.74726659	     10.30003445	     -2.70588502	     -3.28850737	      2.01475859
      3.50000000	      7.15236274	     12.22049681	    -99.77687747	      0.36499102	      0.90357888	     -0.30471897	     11.84490037	      6.97717979	     11.51944404	     -7.33376038	     -2.64543432	     -2.09547200	     29.79334931	    -25.37784336	      9.32672605	    -63.25312666	     17.92877024	      9.27955864	     -2.22485621	     -3.84299037	      3.81410525
